<svg version="1.1" viewBox="0 0 700 700" xmlns="http://www.w3.org/2000/svg" xmlns:xlink="http://www.w3.org/1999/xlink">
 <g id="g46" transform="matrix(1.2518146,0,0,1.2518183,-87.63169,-1.2701045)" style="fill:#ffffff">
  <path d="m391.75 170.81c2.1484 5.4805 5.418 10.504 9.6406 14.727l43.078 43.078c4.2227 4.2227 9.2461 7.4922 14.727 9.6406l-28.824 28.824 48.125 48.121c16.246 16.246 16.246 42.586 0 58.832-16.246 16.246-42.586 16.246-58.828 0l-48.125-48.125-27.324 27.324 13.66 13.664c6.7305 6.7266 6.7305 17.637 0 24.367-6.7266 6.7266-17.637 6.7266-24.367 0l-13.66-13.664-27.324 27.324 40.984 40.988c20.188 20.188 20.188 52.918 0 73.102l-10.094 10.094c-6.7266 6.7305-17.637 6.7305-24.367 0l-65.355-65.352-44.555 44.555 22.277 22.277c6.7305 6.7266 6.7305 17.637 0 24.367-6.7266 6.7305-17.637 6.7305-24.367 0l-112-112c-6.7305-6.7305-6.7305-17.641 0-24.367 6.7305-6.7305 17.641-6.7305 24.367 0l22.277 22.277zm81.617 44.504c-4.0156-0.36328-7.7734-2.125-10.625-4.9766l-43.074-43.074c-2.8516-2.8516-4.6133-6.6094-4.9766-10.625-3.3555-36.906 10.109-70.57 39.438-99.898 40.863-40.863 142.83-71.074 166.52-47.383 23.691 23.691-6.5195 125.66-47.383 166.52-29.328 29.328-62.992 42.793-99.898 39.438z"/>
 </g>
</svg>
